<?xml version="1.0"?>
<svg xmlns="http://www.w3.org/2000/svg" viewBox="0 0 64 64" width="512" height="512"><title>Auto-Level-Survey-Camera-construction</title><g id="Flat"><rect x="18" y="39" width="4" height="6" style="fill:#a25b40"/><rect x="30" y="39" width="4" height="6" style="fill:#a25b40"/><rect x="42" y="39" width="4" height="6" style="fill:#a25b40"/><rect x="14" y="26" width="7" height="4" style="fill:#4c2e4c"/><rect x="43" y="26" width="7" height="4" transform="translate(93 56) rotate(-180)" style="fill:#4c2e4c"/><rect x="15" y="10" width="7" height="8" style="fill:#4c2e4c"/><rect x="42" y="12" width="5" height="4" style="fill:#4c2e4c"/><path d="M22,34l-2-4V26h1V9a3,3,0,0,1,3-3H40a3,3,0,0,1,3,3V26h1v4l-2,4v1H22Z" style="fill:#fed248"/><circle cx="32" cy="18" r="7" style="fill:#56a8c6"/><rect x="12" y="44" width="40" height="4" rx="2" ry="2" style="fill:#4c2e4c"/><path d="M32,22a4,4,0,0,1,0-8v2a2,2,0,1,0,2,2h2A4,4,0,0,1,32,22Z" style="fill:#80c5d4"/><rect x="31" y="3" width="2" height="4" style="fill:#4c2e4c"/><rect x="16" y="34" width="32" height="6" style="fill:#f15a24"/><rect x="28" y="48" width="8" height="13" style="fill:#a25b40"/><polygon points="13 61 15 48 23 48 21 61 13 61" style="fill:#a25b40"/><path d="M39,18v5a3,3,0,0,0,3,3h1V9a3,3,0,0,0-3-3H24a3,3,0,0,0-3,3V26h1a3,3,0,0,0,3-3V18a7,7,0,0,1,7-7h0A7,7,0,0,1,39,18Z" style="fill:#e99a48"/><polygon points="23 48 15 48 14.385 52 22.385 52 23 48" style="fill:#723b43"/><polygon points="51 61 49 48 41 48 43 61 51 61" style="fill:#a25b40"/><polygon points="41 48 49 48 49.615 52 41.615 52 41 48" style="fill:#723b43"/><rect x="28" y="48" width="8" height="4" style="fill:#723b43"/><rect x="19" y="34" width="2" height="3" style="fill:#4c2e4c"/><rect x="23" y="34" width="2" height="3" style="fill:#4c2e4c"/><rect x="27" y="34" width="2" height="3" style="fill:#4c2e4c"/><rect x="31" y="34" width="2" height="3" style="fill:#4c2e4c"/><rect x="35" y="34" width="2" height="3" style="fill:#4c2e4c"/><rect x="39" y="34" width="2" height="3" style="fill:#4c2e4c"/><rect x="43" y="34" width="2" height="3" style="fill:#4c2e4c"/></g></svg>
