<svg height="512pt" viewBox="-88 0 512 512" width="512pt" xmlns="http://www.w3.org/2000/svg"><path d="m250.195312 512c-3.238281 0-6.230468-2.101562-7.21875-5.359375l-48.359374-159.742187c-1.207032-3.988282 1.046874-8.199219 5.035156-9.40625 3.980468-1.207032 8.199218 1.046874 9.40625 5.035156l48.359375 159.742187c1.207031 3.988281-1.046875 8.199219-5.035157 9.40625-.726562.21875-1.460937.324219-2.1875.324219zm0 0" fill="#3a4d7b"/><path d="m40.652344 512c-.722656 0-1.460938-.105469-2.1875-.324219-3.988282-1.207031-6.242188-5.417969-5.035156-9.40625l48.359374-159.742187c1.207032-3.988282 5.417969-6.242188 9.40625-5.035156 3.988282 1.207031 6.242188 5.417968 5.035157 9.40625l-48.363281 159.742187c-.984376 3.257813-3.976563 5.359375-7.214844 5.359375zm0 0" fill="#3a4d7b"/><g fill="#242e5b"><path d="m213.695312 317.269531c-4.167968 0-7.542968-3.378906-7.542968-7.542969v-46.839843c0-4.167969 3.375-7.546875 7.542968-7.546875 4.167969 0 7.542969 3.378906 7.542969 7.546875v46.839843c0 4.164063-3.375 7.542969-7.542969 7.542969zm0 0"/><path d="m145.425781 317.269531c-4.167969 0-7.546875-3.378906-7.546875-7.542969v-46.839843c0-4.167969 3.378906-7.546875 7.546875-7.546875 4.164063 0 7.542969 3.378906 7.542969 7.546875v46.839843c0 4.164063-3.378906 7.542969-7.542969 7.542969zm0 0"/><path d="m77.152344 317.269531c-4.167969 0-7.542969-3.378906-7.542969-7.542969v-46.839843c0-4.167969 3.375-7.546875 7.542969-7.546875 4.164062 0 7.542968 3.378906 7.542968 7.546875v46.839843c0 4.164063-3.378906 7.542969-7.542968 7.542969zm0 0"/></g><path d="m278.917969 57.335938v87.300781h46.675781c5.5 0 9.957031-4.457031 9.957031-9.957031v-67.390626c0-5.5-4.457031-9.953124-9.957031-9.953124zm0 0" fill="#3a4d7b"/><path d="m278.917969 57.335938h22.042969v87.300781h-22.042969zm0 0" fill="#242e5b"/><path d="m278.917969 48.832031v104.304688c0 4.714843-3.820313 8.535156-8.535157 8.535156h-73.285156v-121.371094h73.285156c4.714844 0 8.535157 3.820313 8.535157 8.53125zm0 0" fill="#ffdc61"/><path d="m197.097656 40.300781h46.542969v121.371094h-46.542969zm0 0" fill="#f7ad48"/><path d="m0 32.199219v98.222656c0 17.78125 14.414062 32.199219 32.199219 32.199219h37.84375v46.460937h150.761719v-175.785156c0-18.390625-14.90625-33.296875-33.296876-33.296875h-155.308593c-17.785157 0-32.199219 14.414062-32.199219 32.199219zm0 0" fill="#ffdc61"/><path d="m37.804688 219.234375v37.433594c0 5.605469 4.542968 10.152343 10.148437 10.152343h194.941406c5.605469 0 10.148438-4.546874 10.148438-10.152343v-37.433594c0-5.605469-4.542969-10.152344-10.148438-10.152344h-194.941406c-5.605469 0-10.148437 4.546875-10.148437 10.152344zm0 0" fill="#7d8eb0"/><path d="m242.894531 209.082031h-24.171875c5.605469 0 10.148438 4.546875 10.148438 10.152344v37.4375c0 5.605469-4.542969 10.148437-10.148438 10.148437h24.171875c5.605469 0 10.148438-4.542968 10.148438-10.148437v-37.4375c0-5.605469-4.542969-10.152344-10.148438-10.152344zm0 0" fill="#516789"/><path d="m37.804688 315.613281v18.949219c0 5.605469 4.542968 10.148438 10.148437 10.148438h194.941406c5.605469 0 10.148438-4.542969 10.148438-10.148438v-18.949219c0-5.605469-4.542969-10.148437-10.148438-10.148437h-194.941406c-5.605469 0-10.148437 4.542968-10.148437 10.148437zm0 0" fill="#7d8eb0"/><path d="m242.894531 305.464844h-24.171875c5.605469 0 10.148438 4.542968 10.148438 10.148437v18.949219c0 5.605469-4.542969 10.148438-10.148438 10.148438h24.171875c5.605469 0 10.148438-4.542969 10.148438-10.148438v-18.949219c0-5.605469-4.542969-10.148437-10.148438-10.148437zm0 0" fill="#516789"/><path d="m145.425781 511.996094c-4.167969 0-7.546875-3.375-7.546875-7.542969v-93.875c0-4.164063 3.378906-7.542969 7.546875-7.542969 4.164063 0 7.542969 3.378906 7.542969 7.542969v93.875c0 4.167969-3.378906 7.542969-7.542969 7.542969zm0 0" fill="#3a4d7b"/><path d="m123.144531 393.992188v-49.28125h44.558594v49.28125c0 12.304687-9.976563 22.277343-22.277344 22.277343-12.304687 0-22.28125-9.972656-22.28125-22.277343zm0 0" fill="#3a4d7b"/><path d="m147.285156 344.710938v49.277343c0 10-3.566406 18.460938-8.480468 21.28125 2.089843.648438 4.3125 1 6.621093 1 12.300781 0 22.277344-9.976562 22.277344-22.28125v-49.277343zm0 0" fill="#242e5b"/><path d="m177.230469 209.082031c0 17.566407-14.238281 31.808594-31.804688 31.808594-17.570312 0-31.808593-14.242187-31.808593-31.808594 0-17.566406 14.238281-31.808593 31.808593-31.808593 17.566407 0 31.804688 14.242187 31.804688 31.808593zm0 0" fill="#3a4d7b"/><path d="m145.425781 177.273438c-.15625 0-.308593.011718-.460937.011718 6.144531 5.800782 9.988281 14.015625 9.988281 23.132813 0 17.414062-13.992187 31.550781-31.347656 31.796875 5.695312 5.375 13.367187 8.675781 21.816406 8.675781 17.566406 0 31.808594-14.242187 31.808594-31.808594 0-17.566406-14.238281-31.808593-31.804688-31.808593zm0 0" fill="#242e5b"/><path d="m123.144531 67.816406h-69.171875c-4.167968 0-7.542968-3.378906-7.542968-7.542968 0-4.167969 3.375-7.546876 7.542968-7.546876h69.171875c4.167969 0 7.542969 3.378907 7.542969 7.546876 0 4.164062-3.375 7.542968-7.542969 7.542968zm0 0" fill="#242e5b"/><path d="m88.558594 101.769531h-34.585938c-4.167968 0-7.542968-3.378906-7.542968-7.542969 0-4.167968 3.375-7.546874 7.542968-7.546874h34.585938c4.167968 0 7.542968 3.378906 7.542968 7.546874 0 4.164063-3.375 7.542969-7.542968 7.542969zm0 0" fill="#242e5b"/></svg>