<?xml version="1.0" encoding="iso-8859-1"?>
<!-- Generator: Adobe Illustrator 19.0.0, SVG Export Plug-In . SVG Version: 6.00 Build 0)  -->
<svg version="1.1" id="Capa_1" xmlns="http://www.w3.org/2000/svg" xmlns:xlink="http://www.w3.org/1999/xlink" x="0px" y="0px"
	 viewBox="0 0 468.304 468.304" style="enable-background:new 0 0 468.304 468.304;" xml:space="preserve">
<path style="fill:#2F4859;" d="M256.861,271.524l14.27,6.591l115.188,40.048c18.018,8.101,30.711,25.464,33.498,45.821
	l14.142,103.287l-399.613,1.033L46.354,359.72c1.878-16.98,12.326-31.582,27.342-38.216l117.9-43.39l10.802-3.766L256.861,271.524z"
	/>
<polygon style="fill:#D5D6DB;" points="151.485,292.877 233.049,263.875 309.516,291.338 278.214,468.304 192.252,468.304 "/>
<path style="fill:#F6C358;" d="M255.023,318.163h-45.847c-9.347,0-16.924-7.577-16.924-16.924v-69.425h79.695v69.425
	C271.946,310.586,264.369,318.163,255.023,318.163z"/>
<path style="fill:#FCD462;" d="M158.51,82.252l-26.28,19.68c0,0,20.908,164.895,100.82,161.943
	c48.429-1.789,90.156-58.375,98.881-161.943l-23.667-19.68H158.51z"/>
<polygon style="fill:#CE412D;" points="245.353,355.472 224.076,355.472 211.009,318.163 258.42,318.163 "/>
<polygon style="fill:#E56353;" points="224.599,355.472 205.778,439.091 232.755,468.304 258.42,439.091 244.674,355.472 "/>
<polygon style="fill:#3EA69B;" points="309.498,291.329 297.635,358.451 237.006,320.925 230.45,320.925 166.513,358.451 
	151.465,292.89 192.237,276.718 232.948,317.429 271.972,276.718 "/>
<path style="fill:#FCD462;" d="M311.405,122.105c0,0-9.565-35.849-12.57-45.868c0,0-21.154,37.194-9.074,43.394L311.405,122.105z"/>
<path style="fill:#3A556A;" d="M316.616,172.008c2.123-81.421-34.716-81.421-34.716-81.421
	c-74.927,32.405-109.455-3.434-109.455-3.434c-42.334,10.303-22.416,94.471-22.416,94.471
	c-21.729-9.616-27.286-75.864-27.286-75.864c-6.681-56.57,44.082-69.682,44.082-69.682c5.62-40.71,58.63-35.902,58.63-35.902
	c-12.113,4.433-9.491,13.674-9.491,13.674c21.604-18.044,80.172,1.498,80.172,1.498c-18.42-4.807-31.844,3.497-31.844,3.497
	c24.73,2.698,41.711,16.666,53.324,33.509c21.724,31.509,22.904,72.903,5.48,106.98L316.616,172.008z"/>
<path style="fill:#E1E6E9;" d="M424.364,141.512c-2.539-0.682-4.879-1.628-7.036-2.799
	C419.486,139.884,421.826,140.831,424.364,141.512c0.015-0.004,0.029-0.009,0.044-0.013l0,0
	C424.393,141.504,424.38,141.509,424.364,141.512z"/>
<path style="fill:#D15241;" d="M417.064,105.492H362.83c-4.057,0-7.345,3.288-7.345,7.345v44.23c0,4.057,3.288,7.345,7.345,7.345
	h54.234c4.057,0,7.345-3.288,7.345-7.345v-44.23C424.409,108.78,421.12,105.492,417.064,105.492z M411.944,126.213H367.95v-12.014
	h43.994V126.213z"/>
<polygon style="fill:#D5D6DB;" points="417.328,221.064 405.528,207.725 405.528,203.793 417.328,192.753 405.528,179.414 
	405.528,164.412 374.366,164.412 374.366,280.551 389.947,299.798 405.528,280.551 405.528,260.416 417.328,249.376 
	405.528,236.037 405.528,232.105 "/>
<g>
</g>
<g>
</g>
<g>
</g>
<g>
</g>
<g>
</g>
<g>
</g>
<g>
</g>
<g>
</g>
<g>
</g>
<g>
</g>
<g>
</g>
<g>
</g>
<g>
</g>
<g>
</g>
<g>
</g>
</svg>
