<?xml version="1.0" encoding="iso-8859-1"?>
<!-- Generator: Adobe Illustrator 19.0.0, SVG Export Plug-In . SVG Version: 6.00 Build 0)  -->
<svg version="1.1" id="Capa_1" xmlns="http://www.w3.org/2000/svg" xmlns:xlink="http://www.w3.org/1999/xlink" x="0px" y="0px"
	 viewBox="0 0 468.293 468.293" style="enable-background:new 0 0 468.293 468.293;" xml:space="preserve">
<path style="fill:#FCD462;" d="M462.439,434.401L33.892,5.855C21.384-6.652,0,2.206,0,19.894L0,448.44
	c0,10.965,8.888,19.853,19.853,19.853l428.547,0C466.088,468.293,474.945,446.908,462.439,434.401z M304.613,395.498l-225.198,0
	c-3.654,0-6.617-2.964-6.617-6.617l0-225.198c0-5.895,7.128-8.848,11.297-4.679l225.197,225.197
	C313.46,388.37,310.508,395.498,304.613,395.498z"/>
<g>
	
		<rect x="79.052" y="72.2" transform="matrix(-0.7071 0.7071 -0.7071 -0.7071 207.981 68.1797)" style="fill:#DC8744;" width="21.635" height="9.928"/>
	
		<rect x="89.513" y="106.594" transform="matrix(-0.7071 0.7071 -0.7071 -0.7071 267.1063 112.4777)" style="fill:#DC8744;" width="41.491" height="9.928"/>
	
		<rect x="133.843" y="126.952" transform="matrix(-0.7071 0.7071 -0.7071 -0.7071 340.23 122.9043)" style="fill:#DC8744;" width="21.635" height="9.928"/>
	
		<rect x="144.286" y="161.364" transform="matrix(-0.7071 0.7071 -0.7071 -0.7071 399.3377 167.245)" style="fill:#DC8744;" width="41.491" height="9.928"/>
	
		<rect x="188.622" y="181.734" transform="matrix(-0.7071 0.7071 -0.7071 -0.7071 472.481 177.6885)" style="fill:#DC8744;" width="21.635" height="9.928"/>
	
		<rect x="199.078" y="216.16" transform="matrix(-0.7071 0.7071 -0.7071 -0.7071 531.6207 222.0425)" style="fill:#DC8744;" width="41.491" height="9.928"/>
	
		<rect x="243.4" y="236.515" transform="matrix(-0.7071 0.7071 -0.7071 -0.7071 604.7275 232.471)" style="fill:#DC8744;" width="21.635" height="9.928"/>
	
		<rect x="253.82" y="270.922" transform="matrix(-0.7071 0.7071 -0.7071 -0.7071 663.7944 276.8197)" style="fill:#DC8744;" width="41.491" height="9.928"/>
	
		<rect x="298.151" y="291.305" transform="matrix(-0.7071 0.7071 -0.7071 -0.7071 736.9358 287.2889)" style="fill:#DC8744;" width="21.635" height="9.928"/>
	
		<rect x="308.611" y="325.693" transform="matrix(-0.7071 0.7071 -0.7071 -0.7071 796.0567 331.5764)" style="fill:#DC8744;" width="41.491" height="9.928"/>
	
		<rect x="352.953" y="346.033" transform="matrix(-0.7071 0.7071 -0.7071 -0.7071 869.1875 341.9648)" style="fill:#DC8744;" width="21.635" height="9.928"/>
	
		<rect x="363.367" y="380.439" transform="matrix(-0.7071 0.7071 -0.7071 -0.7071 928.2411 386.3153)" style="fill:#DC8744;" width="41.491" height="9.928"/>
</g>
<g>
</g>
<g>
</g>
<g>
</g>
<g>
</g>
<g>
</g>
<g>
</g>
<g>
</g>
<g>
</g>
<g>
</g>
<g>
</g>
<g>
</g>
<g>
</g>
<g>
</g>
<g>
</g>
<g>
</g>
</svg>
