<svg enable-background="new 0 0 100 100" height="512" viewBox="0 0 100 100" width="512" xmlns="http://www.w3.org/2000/svg"><path d="m76.8605804 72.2920303v22.7079697h-64.2749433v-5.7204285h47.2993421z" fill="#dad7dc"/><path d="m12.584578 92.138382h64.276771v2.861622h-64.276771z" fill="#b0b1b5"/><path d="m76.8613739 8.3303061h-64.2767496v80.9463663h50.9286051l13.3481445-13.3480301z" fill="#e6e7e8"/><path d="m63.5132294 89.27668 13.3481445-13.3480377h-13.3481445z" fill="#48b19a"/><g fill="#304651"><path d="m21.9803581 11.66119v-1.1854458c1.1825523 0 2.1451492-.962018 2.1451492-2.1451492s-.9625969-2.1451488-2.1451492-2.1451488c-1.1831322 0-2.1457272.9620175-2.1457272 2.1451488h-1.1854477c.0000001-1.8360529 1.4945431-3.330595 3.3311749-3.330595s3.330595 1.4945421 3.330595 3.330595-1.4939632 3.330595-3.330595 3.330595z"/><path d="m29.5613117 11.66119v-1.1854458c1.1825523 0 2.1451473-.962018 2.1451473-2.1451492s-.962595-2.1451488-2.1451473-2.1451488c-1.1831322 0-2.1457291.9620175-2.1457291 2.1451488h-1.1854458c.0000001-1.8360529 1.4945431-3.330595 3.3311749-3.330595s3.330595 1.4945421 3.330595 3.330595-1.4939632 3.330595-3.330595 3.330595z"/><path d="m37.1422653 11.66119v-1.1854458c1.1825523 0 2.1451492-.962018 2.1451492-2.1451492s-.9625969-2.1451488-2.1451492-2.1451488c-1.1831322 0-2.1457291.9620175-2.1457291 2.1451488h-1.1854477c.0000001-1.8360529 1.494545-3.330595 3.3311768-3.330595s3.3305931 1.4945421 3.3305931 3.330595-1.4939613 3.330595-3.3305931 3.330595z"/><path d="m44.723217 11.66119v-1.1854458c1.1825523 0 2.1451492-.962018 2.1451492-2.1451492s-.9625969-2.1451488-2.1451492-2.1451488c-1.1831322 0-2.1457253.9620175-2.1457253 2.1451488h-1.1854477c.0000001-1.8360529 1.4945412-3.330595 3.331173-3.330595s3.3305969 1.4945421 3.3305969 3.330595-1.4939651 3.330595-3.3305969 3.330595z"/><path d="m52.3041725 11.66119v-1.1854458c1.1825523 0 2.1451454-.962018 2.1451454-2.1451492s-.9625931-2.1451488-2.1451454-2.1451488c-1.1831322 0-2.1457291.9620175-2.1457291 2.1451488h-1.1854477c.0000001-1.8360529 1.494545-3.330595 3.3311768-3.330595 1.836628 0 3.3305931 1.4945421 3.3305931 3.330595s-1.4939651 3.330595-3.3305931 3.330595z"/><path d="m59.8851242 11.66119v-1.1854458c1.1825523 0 2.1451492-.962018 2.1451492-2.1451492s-.9625969-2.1451488-2.1451492-2.1451488c-1.1831322 0-2.1457291.9620175-2.1457291 2.1451488h-1.1854439c.0000001-1.8360529 1.4945412-3.330595 3.331173-3.330595s3.3305931 1.4945421 3.3305931 3.330595-1.4939613 3.330595-3.3305931 3.330595z"/><path d="m67.4654999 11.66119v-1.1854458c1.1831284 0 2.1457291-.962018 2.1457291-2.1451492s-.9626007-2.1451488-2.1457291-2.1451488c-1.1825562 0-2.1451492.9620175-2.1451492 2.1451488h-1.1854477c0-1.8360529 1.4939651-3.330595 3.3305969-3.330595s3.3311691 1.4945421 3.3311691 3.330595-1.4945373 3.330595-3.3311691 3.330595z"/></g><path d="m18.858975 21.678343h14.556724v14.556724h-14.556724z" fill="#d6b251"/><path d="m18.858975 41.525127h14.556724v14.556724h-14.556724z" fill="#ba9a43"/><path d="m18.858975 61.371914h14.556724v14.556724h-14.556724z" fill="#d6b251"/><g fill="#dad7dc"><path d="m39.120392 28.28857h31.466637v1.336269h-31.466637z"/><path d="m50.991879 31.411087h19.59515v1.336269h-19.59515z"/><path d="m39.120392 25.166052h31.466637v1.336269h-31.466637z"/><path d="m39.120392 48.135357h31.466637v1.336269h-31.466637z"/><path d="m50.991879 51.257874h19.59515v1.336269h-19.59515z"/><path d="m39.120392 45.01284h31.466637v1.336269h-31.466637z"/><path d="m39.120392 67.98214h31.466637v1.336269h-31.466637z"/><path d="m50.991879 71.10466h19.59515v1.336269h-19.59515z"/><path d="m39.120392 64.859627h31.466637v1.336269h-31.466637z"/></g><path d="m87.4154205 15.5902882v71.2129345l-2.7808227 1.2955093-2.7808304-1.2955093v-71.2129345z" fill="#ffcb08"/><path d="m83.705383 15.589422h1.853245v71.28772h-1.853245z" fill="#feed32"/><path d="m81.852135 13.976332h5.559734v1.753174h-5.559734z" fill="#e6e7e8"/><path d="m84.6320419 10.1501455c-1.5352707 0-2.7799072 1.2444868-2.7799072 2.7798367v1.1863146h5.5597458v-1.1863146c0-1.5353499-1.2445602-2.7798367-2.7798386-2.7798367z" fill="#db584d"/><path d="m81.8521347 86.8025513 2.779892 5.5608368 2.7798462-5.5608368z" fill="#fdd96f"/><path d="m86.0270996 89.579689-1.398819 2.7859116-1.3869476-2.7859116z" fill="#304651"/></svg>