<svg height="512" viewBox="0 0 128 128" width="512" xmlns="http://www.w3.org/2000/svg"><g><rect fill="#1689fc" height="107.165" rx="6" width="34.5" x="21.766" y="10.418"/><path d="m121.25 25.22h-64.984v78.389h64.984a5 5 0 0 0 5-5v-68.389a5 5 0 0 0 -5-5z" fill="#0d70b2"/><path d="m66.266 56.232h49.984v37.377h-49.984z" fill="#e1e4fb"/><path d="m66.266 35.22h49.984v11.004h-49.984z" fill="#00ddc1"/><path d="m21.766 25.22h-15.016a5 5 0 0 0 -5 5v68.389a5 5 0 0 0 5 5h15.016z" fill="#0d70b2"/><path d="m101.727 78.923v-8h14.523v-3.5h-14.523v-11.191h-3.5v11.186h-13.938v-11.186h-3.5v11.186h-14.523v3.5h14.523v8h-14.523v3.5h14.523v11.191h3.5v-11.186h13.938v11.186h3.5v-11.186h14.523v-3.5zm-3.5 0h-13.938v-8h13.938z" fill="#c5c9f7"/></g></svg>