<?xml version="1.0" encoding="iso-8859-1"?>
<!-- Generator: Adobe Illustrator 19.0.0, SVG Export Plug-In . SVG Version: 6.00 Build 0)  -->
<svg version="1.1" id="Capa_1" xmlns="http://www.w3.org/2000/svg" xmlns:xlink="http://www.w3.org/1999/xlink" x="0px" y="0px"
	 viewBox="0 0 512 512" style="enable-background:new 0 0 512 512;" xml:space="preserve">
<g>
	<g>
		<path d="M16,0.032c-4.424,0-8,3.584-8,8V504c0,4.424,3.576,8,8,8s8-3.576,8-8V8.032C24,3.616,20.424,0.032,16,0.032z"/>
	</g>
</g>
<g>
	<g>
		<path d="M80,487.984H8c-4.424,0-8,3.576-8,8s3.576,8,8,8h72c4.424,0,8-3.576,8-8S84.424,487.984,80,487.984z"/>
	</g>
</g>
<g>
	<g>
		<path d="M72,479.984c-4.424,0-8,3.576-8,8v16c0,4.424,3.576,8,8,8s8-3.576,8-8v-16C80,483.56,76.424,479.984,72,479.984z"/>
	</g>
</g>
<g>
	<g>
		<path d="M504,487.984h-72c-4.424,0-8,3.576-8,8s3.576,8,8,8h72c4.424,0,8-3.576,8-8S508.424,487.984,504,487.984z"/>
	</g>
</g>
<g>
	<g>
		<path d="M440,479.984c-4.424,0-8,3.576-8,8v16c0,4.424,3.576,8,8,8s8-3.576,8-8v-16C448,483.56,444.424,479.984,440,479.984z"/>
	</g>
</g>
<g>
	<g>
		<path d="M72,368H16c-4.424,0-8,3.576-8,8s3.576,8,8,8h56c4.424,0,8-3.576,8-8S76.424,368,72,368z"/>
	</g>
</g>
<g>
	<g>
		<path d="M160,0c-4.424,0-8,3.584-8,8v176c0,4.416,3.576,8,8,8s8-3.584,8-8V8C168,3.584,164.424,0,160,0z"/>
	</g>
</g>
<g>
	<g>
		<path d="M288,247.984h-56c-4.424,0-8,3.584-8,8c0,4.416,3.576,8,8,8h56c4.424,0,8-3.584,8-8S292.424,247.984,288,247.984z"/>
	</g>
</g>
<g>
	<g>
		<path d="M256,247.984c-4.424,0-8,3.584-8,8v248c0,4.424,3.576,8,8,8s8-3.576,8-8v-248C264,251.568,260.424,247.984,256,247.984z"
			/>
	</g>
</g>
<g>
	<g>
		<path d="M496,0c-4.424,0-8,3.584-8,8v495.984c0,4.424,3.576,8,8,8s8-3.576,8-8V8C504,3.584,500.424,0,496,0z"/>
	</g>
</g>
<g>
	<g>
		<path d="M504,247.984H328c-4.424,0-8,3.584-8,8c0,4.416,3.576,8,8,8h176c4.424,0,8-3.584,8-8S508.424,247.984,504,247.984z"/>
	</g>
</g>
<g>
	<g>
		<path d="M216,487.984H112c-4.424,0-8,3.576-8,8s3.576,8,8,8h104c4.424,0,8-3.576,8-8S220.424,487.984,216,487.984z"/>
	</g>
</g>
<g>
	<g>
		<path d="M400,487.984H296c-4.424,0-8,3.576-8,8s3.576,8,8,8h104c4.424,0,8-3.576,8-8S404.424,487.984,400,487.984z"/>
	</g>
</g>
<g>
	<g>
		<path d="M503.992,8h-72c-4.424,0-8,3.584-8,8s3.576,8,8,8h72c4.424,0,8-3.584,8-8S508.416,8,503.992,8z"/>
	</g>
</g>
<g>
	<g>
		<path d="M439.992,0c-4.424,0-8,3.584-8,8v16c0,4.416,3.576,8,8,8s8-3.584,8-8V8C447.992,3.584,444.416,0,439.992,0z"/>
	</g>
</g>
<g>
	<g>
		<path d="M168,8H8c-4.424,0-8,3.584-8,8s3.576,8,8,8h160c4.424,0,8-3.584,8-8S172.424,8,168,8z"/>
	</g>
</g>
<g>
	<g>
		<path d="M400,8H200c-4.424,0-8,3.584-8,8s3.576,8,8,8h200c4.424,0,8-3.584,8-8S404.424,8,400,8z"/>
	</g>
</g>
<g>
	<g>
		<path d="M232,247.984c-4.424,0-8,3.584-8,8c0,17.648-14.352,32-32,32c-4.424,0-8,3.576-8,8s3.576,8,8,8c26.472,0,48-21.528,48-48
			C240,251.568,236.424,247.984,232,247.984z"/>
	</g>
</g>
<g>
	<g>
		<path d="M112,328c-26.472,0-48,21.528-48,48c0,4.424,3.576,8,8,8s8-3.576,8-8c0-17.648,14.352-32,32-32c4.424,0,8-3.576,8-8
			S116.424,328,112,328z"/>
	</g>
</g>
<g>
	<g>
		<path d="M192,247.984c-4.424,0-8,3.584-8,8v40c0,4.424,3.576,8,8,8s8-3.576,8-8v-40C200,251.568,196.424,247.984,192,247.984z"/>
	</g>
</g>
<g>
	<g>
		<path d="M160,216c-17.648,0-32-14.352-32-32c0-4.416-3.576-8-8-8s-8,3.584-8,8c0,26.472,21.528,48,48,48c4.424,0,8-3.584,8-8
			S164.424,216,160,216z"/>
	</g>
</g>
<g>
	<g>
		<path d="M160,176h-40c-4.424,0-8,3.584-8,8s3.576,8,8,8h40c4.424,0,8-3.584,8-8S164.424,176,160,176z"/>
	</g>
</g>
<g>
	<g>
		<path d="M328,247.984c-4.424,0-8,3.584-8,8c0,17.648-14.352,32-32,32c-4.424,0-8,3.576-8,8s3.576,8,8,8c26.472,0,48-21.528,48-48
			C336,251.568,332.424,247.984,328,247.984z"/>
	</g>
</g>
<g>
	<g>
		<path d="M288,247.984c-4.424,0-8,3.584-8,8v40c0,4.424,3.576,8,8,8s8-3.576,8-8v-40C296,251.568,292.424,247.984,288,247.984z"/>
	</g>
</g>
<g>
	<g>
		<path d="M112,328c-4.424,0-8,3.576-8,8v40c0,4.424,3.576,8,8,8s8-3.576,8-8v-40C120,331.576,116.424,328,112,328z"/>
	</g>
</g>
<g>
	<g>
		<path d="M192,247.984H8c-4.424,0-8,3.584-8,8c0,4.416,3.576,8,8,8h184c4.424,0,8-3.584,8-8S196.424,247.984,192,247.984z"/>
	</g>
</g>
<g>
	<g>
		<path d="M160,368h-48c-4.424,0-8,3.576-8,8s3.576,8,8,8h48c4.424,0,8-3.576,8-8S164.424,368,160,368z"/>
	</g>
</g>
<g>
	<g>
		<path d="M160,216c-4.424,0-8,3.584-8,8v160c0,4.424,3.576,8,8,8s8-3.576,8-8V224C168,219.584,164.424,216,160,216z"/>
	</g>
</g>
<g>
	<g>
		<path d="M464,56c-4.424,0-8,3.584-8,8v40c0,4.416,3.576,8,8,8s8-3.584,8-8V64C472,59.584,468.424,56,464,56z"/>
	</g>
</g>
<g>
	<g>
		<path d="M432,56c-4.424,0-8,3.584-8,8v40c0,4.416,3.576,8,8,8s8-3.584,8-8V64C440,59.584,436.424,56,432,56z"/>
	</g>
</g>
<g>
	<g>
		<path d="M400,56c-4.424,0-8,3.584-8,8v40c0,4.416,3.576,8,8,8s8-3.584,8-8V64C408,59.584,404.424,56,400,56z"/>
	</g>
</g>
<g>
	<g>
		<path d="M368,56c-4.424,0-8,3.584-8,8v40c0,4.416,3.576,8,8,8s8-3.584,8-8V64C376,59.584,372.424,56,368,56z"/>
	</g>
</g>
<g>
	<g>
		<path d="M464,280h-96c-4.424,0-8,3.576-8,8v128c0,4.424,3.576,8,8,8h96c4.424,0,8-3.576,8-8V288C472,283.576,468.424,280,464,280z
			 M456,408h-80V296h80V408z"/>
	</g>
</g>
<g>
	<g>
		<path d="M464,312h-96c-4.424,0-8,3.576-8,8s3.576,8,8,8h96c4.424,0,8-3.576,8-8S468.424,312,464,312z"/>
	</g>
</g>
<g>
	<g>
		<path d="M416,280c-4.424,0-8,3.576-8,8v32c0,4.424,3.576,8,8,8s8-3.576,8-8v-32C424,283.576,420.424,280,416,280z"/>
	</g>
</g>
<g>
	<g>
		<path d="M120,40H56c-4.424,0-8,3.584-8,8v104c0,4.416,3.576,8,8,8h64c4.424,0,8-3.584,8-8V48C128,43.584,124.424,40,120,40z
			 M112,144H64V56h48V144z"/>
	</g>
</g>
<g>
	<g>
		<path d="M120,72H56c-4.424,0-8,3.584-8,8s3.576,8,8,8h64c4.424,0,8-3.584,8-8S124.424,72,120,72z"/>
	</g>
</g>
<g>
	<g>
		<path d="M312,88H192c-4.424,0-8,3.584-8,8v40c0,4.416,3.576,8,8,8h120c4.424,0,8-3.584,8-8V96C320,91.584,316.424,88,312,88z
			 M304,128H200v-24h104V128z"/>
	</g>
</g>
<g>
	<g>
		<path d="M252,152c-11.032,0-20,8.976-20,20s8.968,20,20,20c11.032,0,20-8.976,20-20S263.032,152,252,152z M252,176
			c-2.2,0-4-1.792-4-4s1.8-4,4-4s4,1.792,4,4S254.2,176,252,176z"/>
	</g>
</g>
<g>
	<g>
		<path d="M204,152c-11.032,0-20,8.976-20,20s8.968,20,20,20s20-8.976,20-20S215.032,152,204,152z M204,176c-2.2,0-4-1.792-4-4
			s1.8-4,4-4s4,1.792,4,4S206.2,176,204,176z"/>
	</g>
</g>
<g>
	<g>
		<path d="M300,152c-11.032,0-20,8.976-20,20s8.968,20,20,20c11.032,0,20-8.976,20-20S311.032,152,300,152z M300,176
			c-2.2,0-4-1.792-4-4s1.8-4,4-4s4,1.792,4,4S302.2,176,300,176z"/>
	</g>
</g>
<g>
	<g>
		<path d="M252,40c-11.032,0-20,8.976-20,20s8.968,20,20,20c11.032,0,20-8.976,20-20S263.032,40,252,40z M252,64c-2.2,0-4-1.792-4-4
			s1.8-4,4-4s4,1.792,4,4S254.2,64,252,64z"/>
	</g>
</g>
<g>
	<g>
		<path d="M204,40c-11.032,0-20,8.976-20,20s8.968,20,20,20s20-8.976,20-20S215.032,40,204,40z M204,64c-2.2,0-4-1.792-4-4
			s1.8-4,4-4s4,1.792,4,4S206.2,64,204,64z"/>
	</g>
</g>
<g>
	<g>
		<path d="M300,40c-11.032,0-20,8.976-20,20s8.968,20,20,20c11.032,0,20-8.976,20-20S311.032,40,300,40z M300,64c-2.2,0-4-1.792-4-4
			s1.8-4,4-4s4,1.792,4,4S302.2,64,300,64z"/>
	</g>
</g>
<g>
	<g>
		<path d="M352,200c-4.424,0-8,3.584-8,8v47.984c0,4.416,3.576,8,8,8s8-3.584,8-8V208C360,203.584,356.424,200,352,200z"/>
	</g>
</g>
<g>
	<g>
		<path d="M447.992,200H352c-4.424,0-8,3.584-8,8s3.576,8,8,8h95.992c4.424,0,8-3.584,8-8S452.416,200,447.992,200z"/>
	</g>
</g>
<g>
	<g>
		<path d="M447.992,152c-4.424,0-8,3.584-8,8v48c0,4.416,3.576,8,8,8s8-3.584,8-8v-48C455.992,155.584,452.416,152,447.992,152z"/>
	</g>
</g>
<g>
	<g>
		<path d="M496,152h-48.008c-4.424,0-8,3.584-8,8s3.576,8,8,8H496c4.424,0,8-3.584,8-8S500.424,152,496,152z"/>
	</g>
</g>
<g>
	<g>
		<path d="M480,200h-40.008c-4.424,0-8,3.584-8,8s3.576,8,8,8H480c4.424,0,8-3.584,8-8S484.424,200,480,200z"/>
	</g>
</g>
<g>
	<g>
		<path d="M448,200c-4.424,0-8,3.584-8,8v31.984c0,4.416,3.576,8,8,8s8-3.584,8-8V208C456,203.584,452.424,200,448,200z"/>
	</g>
</g>
<g>
	<g>
		<path d="M400,200c-4.424,0-8,3.584-8,8v31.984c0,4.416,3.576,8,8,8s8-3.584,8-8V208C408,203.584,404.424,200,400,200z"/>
	</g>
</g>
<g>
	<g>
		<path d="M40,272H16c-4.424,0-8,3.576-8,8s3.576,8,8,8h24c4.424,0,8-3.576,8-8S44.424,272,40,272z"/>
	</g>
</g>
<g>
	<g>
		<path d="M40,272c-4.424,0-8,3.576-8,8v40c0,4.424,3.576,8,8,8s8-3.576,8-8v-40C48,275.576,44.424,272,40,272z"/>
	</g>
</g>
<g>
	<g>
		<path d="M40,312H16c-4.424,0-8,3.576-8,8s3.576,8,8,8h24c4.424,0,8-3.576,8-8S44.424,312,40,312z"/>
	</g>
</g>
<g>
	<g>
		<path d="M52,280c-11.032,0-20,8.968-20,20c0,11.032,8.968,20,20,20s20-8.968,20-20C72,288.968,63.032,280,52,280z M52,304
			c-2.2,0-4-1.8-4-4s1.8-4,4-4s4,1.8,4,4S54.2,304,52,304z"/>
	</g>
</g>
<g>
	<g>
		<path d="M256,360h-40c-4.424,0-8,3.576-8,8v96c0,4.424,3.576,8,8,8h40c4.424,0,8-3.576,8-8v-96C264,363.576,260.424,360,256,360z
			 M248,456h-24v-80h24V456z"/>
	</g>
</g>
<g>
	<g>
		<path d="M240,408h-24c-4.424,0-8,3.576-8,8s3.576,8,8,8h24c4.424,0,8-3.576,8-8S244.424,408,240,408z"/>
	</g>
</g>
<g>
	<g>
		<path d="M40,400H16c-4.424,0-8,3.576-8,8v56c0,4.424,3.576,8,8,8h24c4.424,0,8-3.576,8-8v-56C48,403.576,44.424,400,40,400z
			 M32,456h-8v-40h8V456z"/>
	</g>
</g>
<g>
	<g>
		<path d="M68,416c-11.032,0-20,8.968-20,20c0,11.024,8.968,19.992,20,19.992c11.024,0,19.992-8.968,19.992-19.992
			C87.992,424.968,79.024,416,68,416z M68,439.992c-2.2,0-4-1.792-4-3.992s1.8-4,4-4s3.992,1.8,3.992,4S70.2,439.992,68,439.992z"/>
	</g>
</g>
<g>
	<g>
		<path d="M264,488h-16c-4.424,0-8,3.576-8,8s3.576,8,8,8h16c4.424,0,8-3.576,8-8S268.424,488,264,488z"/>
	</g>
</g>
<g>
	<g>
		<path d="M296,360h-40c-4.424,0-8,3.576-8,8v96c0,4.424,3.576,8,8,8h40c4.424,0,8-3.576,8-8v-96C304,363.576,300.424,360,296,360z
			 M288,456h-24v-80h24V456z"/>
	</g>
</g>
<g>
</g>
<g>
</g>
<g>
</g>
<g>
</g>
<g>
</g>
<g>
</g>
<g>
</g>
<g>
</g>
<g>
</g>
<g>
</g>
<g>
</g>
<g>
</g>
<g>
</g>
<g>
</g>
<g>
</g>
</svg>
